<?xml version="1.0" encoding="UTF-8"?>
<svg width="36px" height="36px" viewBox="0 0 36 36" version="1.1" xmlns="http://www.w3.org/2000/svg" xmlns:xlink="http://www.w3.org/1999/xlink">
    <!-- Generator: Sketch 52.6 (67491) - http://www.bohemiancoding.com/sketch -->
    <title>Untitled</title>
    <desc>Created with Sketch.</desc>
    <g id="Page-1" stroke="none" stroke-width="1" fill="none" fill-rule="evenodd">
        <path d="M26,17.5 L18.5,17.5 L18.5,10 C18.5,9.72385763 18.2761424,9.5 18,9.5 C17.7238576,9.5 17.5,9.72385763 17.5,10 L17.5,17.5 L10,17.5 C9.72385763,17.5 9.5,17.7238576 9.5,18 C9.5,18.2761424 9.72385763,18.5 10,18.5 L17.5,18.5 L17.5,26 C17.5,26.2761424 17.7238576,26.5 18,26.5 C18.2761424,26.5 18.5,26.2761424 18.5,26 L18.5,18.5 L26,18.5 C26.2761424,18.5 26.5,18.2761424 26.5,18 C26.5,17.7238576 26.2761424,17.5 26,17.5 Z" id="Path" stroke="#979797" fill="#D8D8D8"></path>
    </g>
</svg>