<?xml version="1.0" encoding="UTF-8"?>
<svg width="36px" height="36px" viewBox="0 0 36 36" version="1.1" xmlns="http://www.w3.org/2000/svg" xmlns:xlink="http://www.w3.org/1999/xlink">
    <!-- Generator: Sketch 52.6 (67491) - http://www.bohemiancoding.com/sketch -->
    <title>Untitled</title>
    <desc>Created with Sketch.</desc>
    <g id="Page-1" stroke="none" stroke-width="1" fill="none" fill-rule="evenodd">
        <path d="M30.9421753,36 L4.99779623,36 C4.95682721,34.5423148 4.9611172,33.7000463 5.01066619,33.4731944 C5.49714722,31.3090278 8.27414311,30.2541667 9.23359182,29.9138889 C10.2876341,29.5395833 11.7876172,29.4511111 12.7538226,29.2333333 C13.3078705,29.1108333 14.1119155,28.8045833 14.3821827,28.4779167 C14.65245,28.15125 14.4902896,25.1227778 14.4902896,25.1227778 C14.4902896,25.1227778 13.9902952,24.3401389 13.720028,23.6459722 C13.4497608,22.9586111 13.1524668,21.0666667 13.1524668,21.0666667 C13.1524668,21.0666667 12.5916623,21.0666667 12.4024752,20.0866667 C12.1930181,19.0181944 11.8619407,18.6030556 11.9024808,17.8068056 C11.9430209,17.0241667 12.3686918,17.0445833 12.3686918,17.0445833 C12.3686918,17.0445833 11.9700476,15.9080556 11.9159942,13.5533333 C11.855184,10.75625 13.9835386,8 17.976737,8 C21.915882,8 24.0915333,10.75625 24.0307232,13.5533333 C23.9834264,15.9080556 23.5712689,17.0445833 23.5712689,17.0445833 C23.5712689,17.0445833 23.9969398,17.0241667 24.0374799,17.8068056 C24.07802,18.6030556 23.7469426,19.0181944 23.5374855,20.0866667 C23.3415417,21.0666667 22.7874939,21.0666667 22.7874939,21.0666667 C22.7874939,21.0666667 22.4901999,22.9586111 22.2199327,23.6459722 C21.9496655,24.3401389 21.4496711,25.1227778 21.4496711,25.1227778 C21.4496711,25.1227778 21.2875107,28.15125 21.557778,28.4779167 C21.8280452,28.8045833 22.6320902,29.1108333 23.1861381,29.2333333 C24.1523435,29.4511111 25.6523266,29.5395833 26.7063689,29.9138889 C27.6658176,30.2541667 30.4428135,31.3090278 30.9292945,33.4731944 C30.9788435,33.7000463 30.9831371,34.5423148 30.9421753,36 Z" id="Path" fill="#000000"></path>
    </g>
</svg>